[Header]
FileType HTR
DataType HTRS
FileVersion 1
NumSegments 22
NumFrames 8
DataFrameRate 24
EulerRotationOrder ZYX
CalibrationUnits mm
RotationUnits Degrees
GlobalAxisofGravity Y
BoneLengthAxis Y
ScaleFactor 1.0
[SegmentNames&Hierarchy]
reference	GLOBAL
Hips	reference
Spine	Hips
Spine1	Spine
Neck	Spine1
Head	Neck
LeftShoulder	Spine1
LeftArm	LeftShoulder
LeftForeArm	LeftArm
LeftHand	LeftForeArm
RightShoulder	Spine1
RightArm	RightShoulder
RightForeArm	RightArm
RightHand	RightForeArm
LeftUpLeg	Hips
LeftLeg	LeftUpLeg
LeftFoot	LeftLeg
LeftToeBase	LeftFoot
RightUpLeg	Hips
RightLeg	RightUpLeg
RightFoot	RightLeg
RightToeBase	RightFoot
[BasePosition]
reference	0	0	0	0	0	0	1
Hips	0	0	0	0	0	0	1
Spine	0	0	0	0	-0	90	1
Spine1	0	0	0	0	0	0	1
Neck	0	0	0	-7.352430803	-7.352430803	90	1
Head	0	0	0	0	-0	90	1
LeftShoulder	0	0	0	0	0	0	1
LeftArm	0	0	0	0	0	0	1
LeftForeArm	0	0	0	0	0	0	1
LeftHand	0	0	0	0	0	0	1
RightShoulder	0	0	0	0	-0	180	1
RightArm	0	0	0	0	-0	180	1
RightForeArm	0	0	0	0	-0	180	1
RightHand	0	0	0	0	-0	180	1
LeftUpLeg	0	0	0	0	-0	-90	1
LeftLeg	0	0	0	0	-0	-90	1
LeftFoot	0	0	0	66.57150701	-66.57150701	-90	1
LeftToeBase	0	0	0	0	-90	0	1
RightUpLeg	0	0	0	0	-0	-90	1
RightLeg	0	0	0	0	-0	-90	1
RightFoot	0	0	0	66.57150701	-66.57150701	-90	1
RightToeBase	0	0	0	0	-90	0	1
[reference]
1	0	0	0	0	-0	0	1.0
2	0	0	0	0	-0	0	1.0
3	0	0	0	0	-0	0	1.0
4	0	0	0	0	-0	0	1.0
5	0	0	0	0	-0	0	1.0
6	0	0	0	0	-0	0	1.0
7	0	0	0	0	-0	0	1.0
8	0	0	0	0	-0	0	1.0
[Hips]
1	6.112139702	8.339130402	1.108610034	9.744842529	-101.5266266	-8.682067871	1.0
2	6.112139702	8.339130402	1.108610034	9.784410477	-101.8059845	-8.40216732	1.0
3	6.112139702	8.339130402	1.108610034	9.67163372	-102.0387192	-7.974316597	1.0
4	6.112139702	8.339130402	1.108610034	9.791027069	-102.3243256	-7.587862968	1.0
5	6.112139702	8.339130402	1.108610034	9.665269852	-102.617424	-7.026224136	1.0
6	6.112139702	8.339130402	1.108610034	9.510154724	-102.870079	-6.589864254	1.0
7	6.112139702	8.339130402	1.108610034	9.547546387	-103.0560608	-6.411636353	1.0
8	6.112139702	8.339130402	1.108610034	9.61444664	-103.1790695	-6.356469631	1.0
[Spine]
1	0	0.7478299737	0	-8.683469772	-3.421212673	-90.75543976	1.0
2	0	0.7478299737	0	-8.441567421	-3.40156126	-90.78294373	1.0
3	0	0.7478299737	0	-8.180639267	-3.448928833	-90.74526978	1.0
4	0	0.7478299737	0	-8.202654839	-3.440808058	-90.79074097	1.0
5	0	0.7478299737	0	-8.150045395	-3.452433348	-90.7987442	1.0
6	0	0.7478299737	0	-7.990259647	-3.465588808	-90.89321899	1.0
7	0	0.7478299737	0	-8.009029388	-3.692773342	-90.80662537	1.0
8	0	0.7478299737	0	-8.063770294	-3.986090899	-90.6602478	1.0
[Spine1]
1	0	2.049309969	0	8.283038139	-0.9312239289	-2.541193962	1.0
2	0	2.049309969	0	8.183559418	-0.9328151345	-2.439371586	1.0
3	0	2.049309969	0	8.037023544	-0.9521859884	-2.45859313	1.0
4	0	2.049309969	0	8.079877853	-0.9518057108	-2.485890388	1.0
5	0	2.049309969	0	7.973148823	-0.9613874555	-2.466039896	1.0
6	0	2.049309969	0	7.911766529	-0.9716342092	-2.476318836	1.0
7	0	2.049309969	0	8.471926689	-1.07048595	-2.969286442	1.0
8	0	2.049309969	0	8.374885559	-1.081136346	-2.987517834	1.0
[Neck]
1	0	2.231709957	0	1.820063829	7.856163979	-84.88400269	1.0
2	0	2.231709957	0	1.363920093	7.934828758	-84.86532593	1.0
3	0	2.231709957	0	1.105177402	8.086654663	-84.75636292	1.0
4	0	2.231709957	0	1.036780834	8.131820679	-84.62369537	1.0
5	0	2.231709957	0	1.059782386	8.315085411	-84.47904968	1.0
6	0	2.231709957	0	0.9993110299	8.366990089	-84.5187149	1.0
7	0	2.231709957	0	0.6908221841	8.570518494	-84.52157593	1.0
8	0	2.231709957	0	0.4208366573	8.751741409	-85.08992004	1.0
[Head]
1	0	1.413589954	0.1823999882	-11.24851799	1.09279108	-95.84651184	1.0
2	0	1.413589954	0.1823999882	-11.03228855	1.164966345	-95.85016632	1.0
3	0	1.413589954	0.1823999882	-11.13818359	1.312767744	-95.97270966	1.0
4	0	1.413589954	0.1823999882	-11.1462965	1.364176035	-95.96165466	1.0
5	0	1.413589954	0.1823999882	-11.37795353	1.549434781	-96.02766418	1.0
6	0	1.413589954	0.1823999882	-11.31881142	1.593500018	-95.83295441	1.0
7	0	1.413589954	0.1823999882	-11.24214363	1.789036036	-95.83830261	1.0
8	0	1.413589954	0.1823999882	-11.29757214	1.904289484	-95.43249512	1.0
[LeftShoulder]
1	0.3649300039	1.825889945	-0.04271000251	-11.96684933	-9.059497833	4.522738457	1.0
2	0.3649300039	1.825889945	-0.04271000251	-11.99627113	-9.154032707	4.516522884	1.0
3	0.3649300039	1.825889945	-0.04271000251	-11.95581722	-9.168065071	4.530281067	1.0
4	0.3649300039	1.825889945	-0.04271000251	-12.14170742	-9.144199371	4.656949997	1.0
5	0.3649300039	1.825889945	-0.04271000251	-12.05974674	-9.166711807	4.607878208	1.0
6	0.3649300039	1.825889945	-0.04271000251	-14.42234707	-8.975790977	5.371148586	1.0
7	0.3649300039	1.825889945	-0.04271000251	-14.45164013	-8.359402657	5.597310066	1.0
8	0.3649300039	1.825889945	-0.04271000251	-14.12110043	-8.50157547	5.432426453	1.0
[LeftArm]
1	1.24003005	0	0	48.91819763	8.448654175	-81.89202881	1.0
2	1.24003005	0	0	48.80111694	8.359743118	-81.97740173	1.0
3	1.24003005	0	0	49.08062744	8.350863457	-82.03263855	1.0
4	1.24003005	0	0	48.9706955	8.385044098	-82.1401062	1.0
5	1.24003005	0	0	48.98460007	8.376461029	-82.05509186	1.0
6	1.24003005	0	0	49.07663345	10.80086136	-83.09773254	1.0
7	1.24003005	0	0	48.99271011	10.436059	-82.61441803	1.0
8	1.24003005	0	0	48.62707901	10.32366943	-82.33470154	1.0
[LeftForeArm]
1	2.847419977	0	0	-15.59022617	-17.13626289	-0.628271997	1.0
2	2.847419977	0	0	-15.67189407	-17.42891312	-0.7083899975	1.0
3	2.847419977	0	0	-15.62690449	-17.68427467	-0.6152743697	1.0
4	2.847419977	0	0	-15.39537239	-17.69891357	-0.8708082438	1.0
5	2.847419977	0	0	-15.37641239	-17.68364906	-1.054423451	1.0
6	2.847419977	0	0	-15.43332005	-17.04987717	-0.5044214129	1.0
7	2.847419977	0	0	-15.19539738	-17.11250114	-1.592507243	1.0
8	2.847419977	0	0	-15.1315403	-16.95620346	-1.788113236	1.0
[LeftHand]
1	2.258270025	0	0	-15.66208363	-5.327317238	-0.4978458583	1.0
2	2.258270025	0	0	-15.75666809	-5.503071785	-0.5026482344	1.0
3	2.258270025	0	0	-15.69538212	-5.474546909	-0.5765452981	1.0
4	2.258270025	0	0	-15.49952888	-5.565099239	-0.6536006927	1.0
5	2.258270025	0	0	-15.51389122	-5.5370574	-0.5551998019	1.0
6	2.258270025	0	0	-15.46193123	-5.547204971	-0.976385653	1.0
7	2.258270025	0	0	-15.40637016	-5.536439419	-0.6005290747	1.0
8	2.258270025	0	0	-15.36559963	-5.456520557	-0.6904895306	1.0
[RightShoulder]
1	-0.3646599948	1.825889945	-0.04271000251	-9.18762207	6.936408997	176.680069	1.0
2	-0.3646599948	1.825889945	-0.04271000251	-9.136371613	6.962584496	176.7164459	1.0
3	-0.3646599948	1.825889945	-0.04271000251	-9.036725998	7.022924423	176.8117218	1.0
4	-0.3646599948	1.825889945	-0.04271000251	-9.117300987	7.045335293	176.83255	1.0
5	-0.3646599948	1.825889945	-0.04271000251	-9.14500618	7.003705502	176.8660431	1.0
6	-0.3646599948	1.825889945	-0.04271000251	-8.986885071	6.89487648	176.8691711	1.0
7	-0.3646599948	1.825889945	-0.04271000251	-9.079212189	7.225402832	176.9056702	1.0
8	-0.3646599948	1.825889945	-0.04271000251	-9.196642876	7.574561119	176.627533	1.0
[RightArm]
1	-1.24003005	0	0	53.40701294	-4.660772324	-95.01704407	1.0
2	-1.24003005	0	0	53.49967575	-4.432226658	-95.19461823	1.0
3	-1.24003005	0	0	53.37730408	-4.197390079	-95.40840149	1.0
4	-1.24003005	0	0	53.53023148	-4.201023102	-95.41699982	1.0
5	-1.24003005	0	0	53.58093262	-4.209378242	-95.31532288	1.0
6	-1.24003005	0	0	53.7602005	-4.194333076	-95.18009186	1.0
7	-1.24003005	0	0	53.40302277	-4.300373077	-94.9581604	1.0
8	-1.24003005	0	0	52.64205933	-4.331428528	-94.50511169	1.0
[RightForeArm]
1	-2.847419977	0	0	-1.366068721	16.53648949	177.7892151	1.0
2	-2.847419977	0	0	-1.428760529	16.6586113	177.6912231	1.0
3	-2.847419977	0	0	-1.354329705	16.81597519	177.6982117	1.0
4	-2.847419977	0	0	-1.497665882	16.78539658	177.6078033	1.0
5	-2.847419977	0	0	-1.467300177	16.73713303	177.5973816	1.0
6	-2.847419977	0	0	-1.675082207	16.79668045	177.53302	1.0
7	-2.847419977	0	0	-1.708164811	16.91865158	177.6944885	1.0
8	-2.847419977	0	0	-1.632666588	16.94408798	178.0485382	1.0
[RightHand]
1	-2.258270025	0	0	-1.368644953	7.897041798	175.3199463	1.0
2	-2.258270025	0	0	-1.413033247	7.847299099	175.315918	1.0
3	-2.258270025	0	0	-1.339344859	7.755712032	175.215744	1.0
4	-2.258270025	0	0	-1.476430893	7.734439373	175.107605	1.0
5	-2.258270025	0	0	-1.446930647	7.766048431	175.1068268	1.0
6	-2.258270025	0	0	-1.633481741	7.825628281	175.2965088	1.0
7	-2.258270025	0	0	-1.679956794	7.914254189	175.4649048	1.0
8	-2.258270025	0	0	-1.647870183	8.071175575	175.6777802	1.0
[LeftUpLeg]
1	0.9119900465	0	0	2.713202	-4.512078285	87.05134583	1.0
2	0.9119900465	0	0	2.351395845	-4.390755177	87.06597137	1.0
3	0.9119900465	0	0	1.973580599	-4.11414814	87.19048309	1.0
4	0.9119900465	0	0	1.530603886	-3.888641357	87.25584412	1.0
5	0.9119900465	0	0	1.244162798	-4.010074139	87.38116455	1.0
6	0.9119900465	0	0	1.087706804	-4.200965405	87.50358582	1.0
7	0.9119900465	0	0	0.9817349911	-3.90822506	87.53330994	1.0
8	0.9119900465	0	0	1.03836751	-3.737319946	87.56517792	1.0
[LeftLeg]
1	0	-4.371409893	0	6.80251503	-0.557739079	87.33641052	1.0
2	0	-4.371409893	0	6.755072117	-0.4645777941	87.28586578	1.0
3	0	-4.371409893	0	6.79156971	-0.7119004726	87.13038635	1.0
4	0	-4.371409893	0	6.561965466	-0.5775822997	87.10643768	1.0
5	0	-4.371409893	0	6.184459686	-0.439743638	87.04555511	1.0
6	0	-4.371409893	0	5.943208218	-0.3297266066	86.93869781	1.0
7	0	-4.371409893	0	5.76356411	-0.3468671441	87.03916168	1.0
8	0	-4.371409893	0	5.497367859	-0.2440322489	87.06547546	1.0
[LeftFoot]
1	0	-3.918009996	0	-101.7163773	117.43573	-39.25959778	1.0
2	0	-3.918009996	0	-101.7460632	117.614624	-39.15226746	1.0
3	0	-3.918009996	0	-101.5182953	117.6474762	-38.7067337	1.0
4	0	-3.918009996	0	-101.7561646	117.609024	-38.93088913	1.0
5	0	-3.918009996	0	-101.3453445	117.7183762	-38.53083801	1.0
6	0	-3.918009996	0	-100.8129883	117.880722	-37.93561935	1.0
7	0	-3.918009996	0	-101.2928009	117.9008102	-38.46408463	1.0
8	0	-3.918009996	0	-101.6864014	117.8254623	-38.94419098	1.0
[LeftToeBase]
1	0	-0.5927900076	1.367989898	0	0	0	1.0
2	0	-0.5927900076	1.367989898	0	0	0	1.0
3	0	-0.5927900076	1.367989898	0	0	0	1.0
4	0	-0.5927900076	1.367989898	0	0	0	1.0
5	0	-0.5927900076	1.367989898	0	0	0	1.0
6	0	-0.5927900076	1.367989898	0	0	0	1.0
7	0	-0.5927900076	1.367989898	0	0	0	1.0
8	0	-0.5927900076	1.367989898	0	0	0	1.0
[RightUpLeg]
1	-0.9119900465	0	0	7.218610764	-19.21020699	89.3411026	1.0
2	-0.9119900465	0	0	6.745329857	-19.02955437	89.37771606	1.0
3	-0.9119900465	0	0	6.54240799	-19.15811348	89.42100525	1.0
4	-0.9119900465	0	0	6.136105537	-18.98570061	89.54920197	1.0
5	-0.9119900465	0	0	5.738731384	-18.29367256	89.72952271	1.0
6	-0.9119900465	0	0	5.510982513	-17.87560272	89.84793854	1.0
7	-0.9119900465	0	0	5.329556465	-17.71624374	89.98883057	1.0
8	-0.9119900465	0	0	5.234923363	-17.45785332	90.06123352	1.0
[RightLeg]
1	0	-4.371409893	0	3.933313608	-4.568703175	90.58372498	1.0
2	0	-4.371409893	0	4.021978378	-4.476935863	90.7239151	1.0
3	0	-4.371409893	0	3.614339113	-4.28726387	90.90945435	1.0
4	0	-4.371409893	0	3.183222055	-4.309348583	91.07121277	1.0
5	0	-4.371409893	0	2.903138161	-4.485836029	91.35297394	1.0
6	0	-4.371409893	0	2.739987135	-4.315502644	91.52885437	1.0
7	0	-4.371409893	0	2.639533043	-4.36811161	91.52493286	1.0
8	0	-4.371409893	0	2.633392811	-4.337423325	91.5410614	1.0
[RightFoot]
1	0	-3.918009996	0	22.21164703	64.1366806	79.38232422	1.0
2	0	-3.918009996	0	21.89348984	64.10224915	79.20845032	1.0
3	0	-3.918009996	0	22.0053997	64.17875671	79.24855042	1.0
4	0	-3.918009996	0	22.09251404	64.31331635	79.25769806	1.0
5	0	-3.918009996	0	21.36560059	64.28594971	78.32756805	1.0
6	0	-3.918009996	0	20.74939728	64.10193634	77.6006546	1.0
7	0	-3.918009996	0	20.38217545	64.24691772	77.26052856	1.0
8	0	-3.918009996	0	19.99121857	64.10464478	76.93269348	1.0
[RightToeBase]
1	0	-0.5927900076	1.367989898	0	0	0	1.0
2	0	-0.5927900076	1.367989898	0	0	0	1.0
3	0	-0.5927900076	1.367989898	0	0	0	1.0
4	0	-0.5927900076	1.367989898	0	0	0	1.0
5	0	-0.5927900076	1.367989898	0	0	0	1.0
6	0	-0.5927900076	1.367989898	0	0	0	1.0
7	0	-0.5927900076	1.367989898	0	0	0	1.0
8	0	-0.5927900076	1.367989898	0	0	0	1.0
[EndOfFile]
